Coordinates
version=1
nRows=6
nColumns=36
inDegrees=yes

Units are S.I. units (second, meters, Newtons, ...)
If the header above contains a line with 'inDegrees', this indicates whether rotational values are in degrees (yes) or radians (no).

endheader
time	pelvis_tilt	pelvis_list	pelvis_rotation	pelvis_tx	pelvis_ty	pelvis_tz	hip_flexion_r	hip_adduction_r	hip_rotation_r	knee_angle_r	knee_angle_r_beta	ankle_angle_r	subtalar_angle_r	mtp_angle_r	hip_flexion_l	hip_adduction_l	hip_rotation_l	knee_angle_l	knee_angle_l_beta	ankle_angle_l	subtalar_angle_l	mtp_angle_l	lumbar_extension	lumbar_bending	lumbar_rotation	arm_flex_r	arm_add_r	arm_rot_r	elbow_flex_r	pro_sup_r	arm_flex_l	arm_add_l	arm_rot_l	elbow_flex_l	pro_sup_l
      0.00000000	     27.61987413	     -1.37954228	     -4.31066618	     -0.17208785	      0.65662255	     -0.06553543	     54.27323485	     -5.86593404	      0.42247607	     89.43217233	      1.56088586	     -8.63646372	    -14.69299663	     -7.40975009	     50.42593113	    -18.84843623	      0.41552373	     89.12211690	      1.55547438	      0.12567414	     -1.46092372	     -7.40975009	    -46.73907620	     -1.78103072	      5.24887918	      7.78849845	    -14.35883623	     11.57501665	     20.83504810	     72.01528520	     12.05990147	    -12.57897879	     22.36633928	     18.02165338	     63.64847313
      0.01666670	     27.23115800	     -1.92384292	     -3.30325359	     -0.16834308	      0.65674660	     -0.06891091	     54.23238517	     -4.54667108	      0.74505678	     91.10969774	      1.59016421	     -2.98968329	    -11.41646445	     -7.42744435	     53.22604557	    -15.54138438	      2.93381746	     93.15913258	      1.62593359	      6.75422573	     -1.83798127	     -7.42744435	    -46.44659377	     -0.69486442	      4.13377736	     10.08547156	    -13.13471966	     13.17261003	     15.35518624	     73.89097603	     11.64411917	    -11.66070859	     15.91231295	     16.51635579	     62.91579620
      0.03333330	     27.65529006	     -1.63810363	     -3.43390791	     -0.17024118	      0.65691590	     -0.06889784	     53.62434510	     -5.02881315	      1.03172325	     92.08654154	      1.60721335	      0.78837328	     -8.79889547	     -7.42878739	     53.08761613	    -14.68190766	      3.25011812	     93.37871699	      1.62976606	      6.75147180	     -2.69273727	     -7.42878739	    -47.08501144	     -0.90693776	      4.25588051	     10.24797219	    -12.89178622	     13.12115564	     14.12903327	     73.92549051	     12.04614466	    -11.28614047	     15.39137899	     15.99045534	     62.91527843
      0.05000000	     28.57739430	     -1.29689777	     -3.34457692	     -0.17154628	      0.65744920	     -0.06840267	     52.56416654	     -5.09309997	      1.19409169	     91.73545237	      1.60108568	      2.60704545	     -6.86230707	     -7.43761143	     51.97760002	    -14.21713009	      3.38041768	     93.35261232	      1.62931045	      6.54821763	     -2.63018814	     -7.43761143	    -47.93647816	     -0.98834143	      3.42419974	     11.19126985	    -12.52534227	     13.57993784	     12.28672107	     73.33949152	     11.97010387	    -11.08279466	     14.11784587	     15.77792281	     62.65606950
      0.06666670	     28.92041641	     -1.10895382	     -3.24504028	     -0.17737729	      0.65794164	     -0.06547239	     52.21224229	     -4.78376109	      1.27722959	     91.63159275	      1.59927299	      3.64868681	     -6.21279247	     -7.44588222	     51.58606854	    -13.94310104	      3.49008563	     92.95108360	      1.62230245	      6.01184386	     -2.96865604	     -7.44588222	    -48.72945213	     -0.95503640	      2.10308294	     13.16980983	    -12.14455189	     18.75461912	      9.88243593	     75.28088561	     11.30240487	    -11.37345961	     11.31396706	     17.20054819	     63.06588969
      0.08333330	     29.10325616	     -0.91627657	     -3.23846213	     -0.17702152	      0.65812757	     -0.06530768	     51.95408860	     -4.90369665	      1.42832947	     91.49175167	      1.59683231	      3.96321410	     -5.65932170	     -7.45952609	     51.43030246	    -13.96008348	      3.41629005	     92.37687313	      1.61228059	      5.04558292	     -3.03526341	     -7.45952609	    -49.15389142	     -1.14495412	      1.58288023	     14.22303757	    -11.99870924	     22.97591922	      8.57271914	     74.27782279	     11.22934037	    -11.33729152	      8.26603135	     17.72069611	     64.68469215
